<svg width="42" height="21" viewBox="0 0 42 21" fill="none" xmlns="http://www.w3.org/2000/svg">
<rect x="1.12854" y="0.517146" width="39.7106" height="20.0471" rx="3.31727" fill="#338AF3" fill-opacity="0.25"/>
<path d="M13.3719 10.4043H11.8288L11.8206 9.5544H13.1161C13.3444 9.5544 13.5314 9.52552 13.6772 9.46776C13.823 9.40725 13.9316 9.3206 14.0031 9.20783C14.0774 9.09231 14.1145 8.95203 14.1145 8.787C14.1145 8.59997 14.0788 8.44869 14.0072 8.33317C13.9385 8.21765 13.8298 8.13376 13.6813 8.0815C13.5355 8.02924 13.3471 8.00311 13.1161 8.00311H12.2579V13.0407H11.0202V7.03355H13.1161C13.4654 7.03355 13.7776 7.06655 14.0526 7.13257C14.3304 7.19858 14.5656 7.29897 14.7581 7.43375C14.9507 7.56852 15.0978 7.73906 15.1996 7.94535C15.3014 8.14888 15.3522 8.39093 15.3522 8.67148C15.3522 8.91903 15.2959 9.14732 15.1831 9.35636C15.0731 9.5654 14.8984 9.73593 14.6591 9.86796C14.4226 9.99998 14.1131 10.0729 13.7308 10.0866L13.3719 10.4043ZM13.3182 13.0407H11.4905L11.9732 12.0752H13.3182C13.5355 12.0752 13.7129 12.0409 13.8505 11.9721C13.988 11.9006 14.0898 11.8043 14.1558 11.6833C14.2218 11.5623 14.2548 11.4234 14.2548 11.2666C14.2548 11.0906 14.2245 10.9379 14.164 10.8086C14.1063 10.6794 14.0127 10.5803 13.8835 10.5116C13.7542 10.4401 13.5837 10.4043 13.3719 10.4043H12.1795L12.1878 9.5544H13.6731L13.9577 9.88859C14.3235 9.88309 14.6179 9.94772 14.8406 10.0825C15.0662 10.2145 15.2298 10.3864 15.3316 10.5982C15.4361 10.81 15.4884 11.0369 15.4884 11.279C15.4884 11.664 15.4045 11.9886 15.2367 12.2527C15.0689 12.514 14.8228 12.7106 14.4982 12.8426C14.1764 12.9747 13.7831 13.0407 13.3182 13.0407ZM20.2784 12.0752V13.0407H17.2542V12.0752H20.2784ZM17.6544 7.03355V13.0407H16.4167V7.03355H17.6544ZM24.1649 7.03355H25.3985V11.0025C25.3985 11.4646 25.2995 11.8538 25.1015 12.1701C24.9062 12.4865 24.6352 12.7244 24.2887 12.8839C23.9449 13.0434 23.5488 13.1232 23.1005 13.1232C22.6521 13.1232 22.2533 13.0434 21.904 12.8839C21.5574 12.7244 21.2851 12.4865 21.0871 12.1701C20.8918 11.8538 20.7941 11.4646 20.7941 11.0025V7.03355H22.0319V11.0025C22.0319 11.2721 22.0745 11.4921 22.1598 11.6627C22.245 11.8332 22.3674 11.9584 22.527 12.0381C22.6892 12.1179 22.8804 12.1578 23.1005 12.1578C23.326 12.1578 23.5172 12.1179 23.6739 12.0381C23.8335 11.9584 23.9545 11.8332 24.037 11.6627C24.1223 11.4921 24.1649 11.2721 24.1649 11.0025V7.03355ZM30.4485 12.0752V13.0407H27.251V12.0752H30.4485ZM27.6553 7.03355V13.0407H26.4176V7.03355H27.6553ZM30.0318 9.48013V10.4208H27.251V9.48013H30.0318ZM30.4443 7.03355V8.00311H27.251V7.03355H30.4443Z" fill="#E1E1E6"/>
<rect x="1.12854" y="0.517146" width="39.7106" height="20.0471" rx="3.31727" stroke="#338AF3" stroke-width="0.60314"/>
</svg>